<svg width="455" height="433" viewBox="0 0 455 433" xmlns="http://www.w3.org/2000/svg"><title>Page 1</title><g fill="none" fill-rule="evenodd"><path d="M178.478 432.196V110.37c0-16.375 13.425-29.772 29.832-29.772h214.35c16.407 0 29.832 13.397 29.832 29.772l.163 321.826" fill="#F8F8F8"/><path d="M178.478 432.196V110.37c0-16.375 13.425-29.772 29.832-29.772h214.35c16.407 0 29.832 13.397 29.832 29.772l.163 321.826" stroke="#4A4A4A" stroke-width="3"/><path d="M276.503 109.897c0 5.395-4.381 9.767-9.786 9.767-5.405 0-9.786-4.372-9.786-9.767 0-5.394 4.381-9.766 9.786-9.766 5.405 0 9.786 4.372 9.786 9.766m-98.025 322.299V139.197h264.391v293" fill="#FFF"/><path stroke="#4A4A4A" stroke-width="2" d="M178.478 432.196V139.197h264.391v293"/><path d="M374.365 236.864c0 32.363-26.288 58.6-58.717 58.6s-58.717-26.237-58.717-58.6c0-32.364 26.288-58.6 58.717-58.6s58.717 26.236 58.717 58.6m9.786 117.199H247.145c-5.383 0-9.787-4.395-9.787-9.766 0-5.372 4.404-9.767 9.787-9.767H384.15c5.383 0 9.787 4.395 9.787 9.767 0 5.371-4.404 9.766-9.787 9.766m-39.143 39.067h-58.718c-5.382 0-9.786-4.395-9.786-9.767 0-5.371 4.404-9.766 9.786-9.766h58.718c5.382 0 9.786 4.395 9.786 9.766 0 5.372-4.404 9.767-9.786 9.767" fill="#ECECEC"/><path d="M327.864 218.481s-5.379-2.186-10.767-2.155c-4.754.032-9.508 1.796-10.588 8.315 0 0-1.408 6.16 6.352 9.859 7.76 3.697 16.23 6.17 13.054 16.376 0 0-4.933 11.982-22.402 3.17m12.639-46.838v9.118m0 40.816v9.9" stroke="#4A4A4A" stroke-width="3" stroke-linecap="round" stroke-linejoin="round"/><path d="M192.546 99.586a26.416 26.416 0 0 1 20.64-9.906m-24.401 16.236a26.291 26.291 0 0 1 1.77-3.484" stroke="#4A4A4A" stroke-width="2" stroke-linecap="round"/><path d="M413.51 80.598c16.408 0 29.832 13.397 29.832 29.772l-.473 321.826" stroke="#4A4A4A" stroke-width="2"/><path d="M315.648 95.248a4.889 4.889 0 0 1-4.893 4.883 4.889 4.889 0 0 1-4.893-4.883 4.889 4.889 0 0 1 4.893-4.884 4.889 4.889 0 0 1 4.893 4.884" fill="#ECECEC"/><path d="M286.29 114.294h48.93" stroke="#4A4A4A" stroke-width="3" stroke-linecap="round" stroke-linejoin="round"/><path d="M2.49 432.196V32.237c0-16.375 13.424-29.772 29.832-29.772H246.67c16.407 0 29.832 13.397 29.832 29.772l.164 399.96" fill="#F8F8F8"/><path d="M2.49 432.196V32.237c0-16.375 13.424-29.772 29.832-29.772H246.67c16.407 0 29.832 13.397 29.832 29.772l.164 399.96" stroke="#4A4A4A" stroke-width="3"/><path fill="#FFF" d="M2.979 432.196V61.064h263.738v371.132"/><path stroke="#4A4A4A" stroke-width="2" d="M2.979 432.196V61.064h263.738v371.132"/><path d="M53.403 95.49c-3.068 0-5.99.623-8.649 1.75-7.962 3.343-13.652 11.165-13.806 20.266-.04 2.333.278 4.586.902 6.708 0 0 1.116 3.412-1.024 8.059-1.037 2.253-2.397 4.065-3.515 5.33-.727.822-.093 2.115 1.003 2.047 1.583-.1 3.56-.374 5.396-1.058 2.329-.867 3.917-1.984 4.764-2.682a1.233 1.233 0 0 1 1.521-.04 22.331 22.331 0 0 0 8.762 3.935c.408.084.556.109.704.135 1.28.23 2.596.356 3.942.356h91.078c12.248 0 22.178-9.93 22.178-22.18v-.447c0-12.25-9.93-22.18-22.178-22.18H53.403zm161.853 63a22.1 22.1 0 0 1 8.648 1.75c7.963 3.343 13.653 11.165 13.807 20.266a22.396 22.396 0 0 1-.902 6.708s-1.116 3.412 1.024 8.059c1.037 2.253 2.396 4.065 3.514 5.33.727.822.094 2.115-1.003 2.047-1.583-.1-3.56-.374-5.396-1.058-2.328-.867-3.916-1.984-4.763-2.682a1.233 1.233 0 0 0-1.522-.04 22.331 22.331 0 0 1-8.761 3.935c-.409.084-.557.109-.704.135-1.28.23-2.596.356-3.942.356h-61.078c-12.249 0-22.178-9.93-22.178-22.18v-.447c0-12.25 9.93-22.18 22.178-22.18h61.078z" fill="#ECECEC"/><path d="M15.905 20.964a26.416 26.416 0 0 1 20.64-9.905M12.144 27.295c.505-1.21.499-1.226 1.17-2.337" stroke="#4A4A4A" stroke-width="2" stroke-linecap="round"/><path d="M236.721 2.465c16.408 0 29.833 13.397 29.833 29.772l.163 399.96" stroke="#4A4A4A" stroke-width="2"/><path d="M53.403 215c-3.068 0-5.99.624-8.649 1.75-7.962 3.344-13.652 11.166-13.806 20.267-.04 2.333.278 4.585.902 6.708 0 0 1.116 3.412-1.024 8.059-1.037 2.252-2.397 4.064-3.515 5.329-.727.822-.093 2.116 1.003 2.047 1.583-.1 3.56-.374 5.396-1.057 2.329-.867 3.917-1.984 4.764-2.682a1.233 1.233 0 0 1 1.521-.04 22.331 22.331 0 0 0 8.762 3.934c.408.085.556.11.704.135 1.28.23 2.596.357 3.942.357H94.48c12.248 0 22.178-9.93 22.178-22.18v-.447c0-12.25-9.93-22.18-22.178-22.18H53.403z" fill="#FF0083"/><path d="M64.457 237.255c0 .954-.16 1.83-.477 2.628a6.037 6.037 0 0 1-1.341 2.061 6 6 0 0 1-2.08 1.341c-.81.318-1.706.477-2.69.477H52.9v-13.014h4.968c.984 0 1.88.16 2.69.482.81.32 1.504.768 2.08 1.34a5.989 5.989 0 0 1 1.34 2.057c.319.798.478 1.674.478 2.628zm-2.475 0c0-.714-.096-1.354-.288-1.921a4.071 4.071 0 0 0-.82-1.44 3.531 3.531 0 0 0-1.29-.905c-.508-.21-1.08-.315-1.715-.315h-2.53v9.162h2.53c.636 0 1.207-.105 1.714-.315.507-.21.938-.511 1.292-.904.354-.393.627-.873.819-1.44.192-.567.288-1.208.288-1.922zm8.19-2.87c.69 0 1.315.11 1.876.332.561.222 1.04.537 1.436.945.396.408.702.906.918 1.494.216.588.324 1.245.324 1.971 0 .732-.108 1.392-.324 1.98a4.276 4.276 0 0 1-.918 1.503 3.988 3.988 0 0 1-1.436.954c-.56.222-1.186.333-1.876.333s-1.317-.11-1.881-.333a4.024 4.024 0 0 1-1.445-.954 4.294 4.294 0 0 1-.927-1.503c-.219-.588-.328-1.248-.328-1.98 0-.726.11-1.383.328-1.97a4.202 4.202 0 0 1 .927-1.495c.4-.408.88-.723 1.445-.945a5.096 5.096 0 0 1 1.88-.333zm0 7.802c.768 0 1.336-.258 1.705-.774.37-.516.554-1.272.554-2.268 0-.996-.185-1.755-.554-2.277-.369-.522-.937-.783-1.705-.783-.78 0-1.356.263-1.728.788-.372.525-.558 1.282-.558 2.272 0 .99.186 1.745.558 2.264.372.519.948.778 1.728.778zm6.29 1.575v-9.234h1.36c.288 0 .477.135.567.405l.153.73c.186-.193.382-.367.59-.523.206-.156.425-.29.656-.405.231-.114.479-.2.743-.26s.552-.09.864-.09c.504 0 .95.085 1.34.256.39.17.716.41.977.72.261.309.46.678.594 1.107a4.7 4.7 0 0 1 .203 1.417v5.877h-2.223v-5.877c0-.564-.13-1-.392-1.31-.26-.308-.652-.463-1.174-.463-.384 0-.744.087-1.08.261a3.87 3.87 0 0 0-.954.711v6.678h-2.223zm14.05-9.378a4.46 4.46 0 0 1 1.606.28c.49.185.91.457 1.265.814.354.357.63.795.828 1.314.198.519.297 1.111.297 1.777 0 .168-.008.308-.023.419a.67.67 0 0 1-.08.26.328.328 0 0 1-.158.136.671.671 0 0 1-.252.04h-5.706c.066.948.32 1.644.765 2.088.444.444 1.032.666 1.764.666.36 0 .67-.042.931-.126.261-.084.49-.177.684-.279a15.9 15.9 0 0 0 .513-.279.86.86 0 0 1 .428-.126c.09 0 .168.018.234.054a.517.517 0 0 1 .17.153l.649.81c-.246.288-.522.53-.828.725a4.644 4.644 0 0 1-.959.468c-.333.117-.672.2-1.017.247-.345.048-.68.072-1.003.072a4.933 4.933 0 0 1-1.791-.32 4.01 4.01 0 0 1-1.44-.944 4.434 4.434 0 0 1-.963-1.548c-.234-.615-.351-1.328-.351-2.138 0-.63.102-1.222.306-1.777a4.274 4.274 0 0 1 .877-1.45 4.131 4.131 0 0 1 1.395-.976c.55-.24 1.169-.36 1.859-.36zm.045 1.593c-.648 0-1.155.183-1.521.55-.366.365-.6.884-.702 1.556h4.176c0-.288-.04-.56-.117-.814a1.879 1.879 0 0 0-.36-.67 1.704 1.704 0 0 0-.612-.455 2.084 2.084 0 0 0-.864-.167zm5.229 6.561c0-.186.034-.363.103-.53.07-.169.165-.313.288-.433a1.42 1.42 0 0 1 .437-.288c.168-.072.348-.108.54-.108.186 0 .363.036.53.108.169.072.313.168.433.288.12.12.216.264.288.432.072.168.108.345.108.531 0 .192-.036.37-.108.536a1.303 1.303 0 0 1-.72.711 1.384 1.384 0 0 1-.531.103 1.407 1.407 0 0 1-.977-.387 1.28 1.28 0 0 1-.288-.427 1.374 1.374 0 0 1-.103-.536z" fill="#FFF"/><path d="M139.496 17.114a4.889 4.889 0 0 1-4.893 4.884 4.889 4.889 0 0 1-4.893-4.884 4.889 4.889 0 0 1 4.893-4.883 4.889 4.889 0 0 1 4.893 4.883m-39.145 19.534a4.889 4.889 0 0 1-4.893 4.883 4.889 4.889 0 0 1-4.893-4.883 4.889 4.889 0 0 1 4.893-4.884 4.889 4.889 0 0 1 4.893 4.884" fill="#ECECEC"/><path d="M110.138 35.673h48.93" stroke="#4A4A4A" stroke-width="3" stroke-linecap="round" stroke-linejoin="round"/><path fill="#000" opacity=".1" d="M276.503 432.197h19.573V80.598h-19.573z"/></g></svg>
